<svg width="32" height="32" viewBox="0 0 32 32" fill="none" xmlns="http://www.w3.org/2000/svg">
<rect width="32" height="32" rx="6" fill="#6C68CA"/>
<path d="M13.4324 24L10.4013 18.3376H9.55013V24H6V9H11.9584C13.1072 9 14.083 9.20655 14.8857 9.61966C15.7023 10.0328 16.3113 10.6026 16.7127 11.3291C17.1141 12.0413 17.3148 12.839 17.3148 13.7222C17.3148 14.7194 17.0379 15.6097 16.4843 16.3932C15.9445 17.1766 15.1418 17.7322 14.076 18.0598L17.4393 24H13.4324ZM9.55013 15.7521H11.7508C12.4013 15.7521 12.8857 15.5883 13.2041 15.2607C13.5363 14.933 13.7023 14.4701 13.7023 13.8718C13.7023 13.302 13.5363 12.8533 13.2041 12.5256C12.8857 12.198 12.4013 12.0342 11.7508 12.0342H9.55013V15.7521Z" fill="white"/>
<path d="M26 20.9017V24H24.1938C22.9066 24 21.9032 23.6795 21.1834 23.0385C20.4637 22.3832 20.1039 21.3219 20.1039 19.8547V15.1111H18.6921V12.0769H20.1039V9.17094H23.654V12.0769H25.9792V15.1111H23.654V19.8974C23.654 20.2536 23.737 20.51 23.9031 20.6667C24.0692 20.8234 24.346 20.9017 24.7336 20.9017H26Z" fill="white"/>
</svg>
